<svg width="63" height="14" viewBox="0 0 63 14" fill="none" xmlns="http://www.w3.org/2000/svg">
<path d="M4.25894 14C3.16435 14 2.2522 13.727 1.52247 13.181C0.79938 12.6349 0.29189 11.8984 0 10.9714L2.36829 10.4286C2.44126 10.8159 2.65354 11.1492 3.00514 11.4286C3.35673 11.7079 3.74481 11.8476 4.16938 11.8476C4.448 11.8476 4.74321 11.7778 5.055 11.6381C5.36679 11.4921 5.59898 11.2603 5.75156 10.9429C5.84443 10.7397 5.8975 10.4984 5.91077 10.219C5.93067 9.93333 5.94062 9.60317 5.94062 9.22857V0H8.36861V9.22857C8.36861 9.65397 8.3653 10.0286 8.35866 10.3524C8.35866 10.6698 8.32549 10.9714 8.25916 11.2571C8.19945 11.5365 8.07672 11.8254 7.89098 12.1238C7.49958 12.7714 6.98877 13.2476 6.35855 13.5524C5.72834 13.8508 5.02847 14 4.25894 14Z" fill="#161616"/>
<path d="M9.97955 13.7143L14.4972 0H18.0098L22.5275 13.7143H20.0597L15.96 1.40952H16.4973L12.4473 13.7143H9.97955ZM12.4971 10.7429V8.6H20.0199V10.7429H12.4971Z" fill="#161616"/>
<path d="M26.6238 13.7143V8.09524L21.7479 0H24.5441L27.8378 5.46667L31.1216 0H33.9177L29.0518 8.09524V13.7143H26.6238Z" fill="#161616"/>
<path d="M51.4969 13.7143V0H53.9249L60.572 9.66667V0H63V13.7143H60.572L53.9249 4.04762V13.7143H51.4969Z" fill="#161616"/>
<path d="M35.5064 13.7143V0H37.9046V11.5619H44.2333V13.7143H35.5064Z" fill="#40C966"/>
<path d="M46.118 13.7143V0H48.5161V13.7143H46.118Z" fill="#40C966"/>
</svg>
