<svg width="60" height="13" viewBox="0 0 60 13" fill="none" xmlns="http://www.w3.org/2000/svg">
<path d="M5.45961 12.225C4.66961 12.225 3.95711 12.0875 3.32211 11.8125C2.69211 11.5375 2.17211 11.145 1.76211 10.635C1.35711 10.12 1.09961 9.51 0.989609 8.805L2.86461 8.52C3.02461 9.16 3.35211 9.655 3.84711 10.005C4.34711 10.355 4.92211 10.53 5.57211 10.53C5.95711 10.53 6.31961 10.47 6.65961 10.35C6.99961 10.23 7.27461 10.055 7.48461 9.825C7.69961 9.595 7.80711 9.3125 7.80711 8.9775C7.80711 8.8275 7.78211 8.69 7.73211 8.565C7.68211 8.435 7.60711 8.32 7.50711 8.22C7.41211 8.12 7.28711 8.03 7.13211 7.95C6.98211 7.865 6.80711 7.7925 6.60711 7.7325L3.81711 6.9075C3.57711 6.8375 3.31711 6.745 3.03711 6.63C2.76211 6.51 2.49961 6.3475 2.24961 6.1425C2.00461 5.9325 1.80211 5.6675 1.64211 5.3475C1.48711 5.0225 1.40961 4.6225 1.40961 4.1475C1.40961 3.4525 1.58461 2.87 1.93461 2.4C2.28961 1.925 2.76461 1.57 3.35961 1.335C3.95961 1.1 4.62461 0.984999 5.35461 0.99C6.09461 0.994999 6.75461 1.1225 7.33461 1.3725C7.91461 1.6175 8.39961 1.975 8.78961 2.445C9.17961 2.915 9.45461 3.4825 9.61461 4.1475L7.67211 4.485C7.59211 4.105 7.43711 3.7825 7.20711 3.5175C6.98211 3.2475 6.70461 3.0425 6.37461 2.9025C6.04961 2.7625 5.70211 2.6875 5.33211 2.6775C4.97211 2.6725 4.63711 2.7275 4.32711 2.8425C4.02211 2.9525 3.77461 3.1125 3.58461 3.3225C3.39961 3.5325 3.30711 3.7775 3.30711 4.0575C3.30711 4.3225 3.38711 4.54 3.54711 4.71C3.70711 4.875 3.90461 5.0075 4.13961 5.1075C4.37961 5.2025 4.62211 5.2825 4.86711 5.3475L6.80211 5.8875C7.06711 5.9575 7.36461 6.0525 7.69461 6.1725C8.02461 6.2925 8.34211 6.46 8.64711 6.675C8.95211 6.89 9.20211 7.1725 9.39711 7.5225C9.59711 7.8725 9.69711 8.3175 9.69711 8.8575C9.69711 9.4175 9.57961 9.91 9.34461 10.335C9.11461 10.755 8.80211 11.105 8.40711 11.385C8.01211 11.665 7.55961 11.875 7.04961 12.015C6.54461 12.155 6.01461 12.225 5.45961 12.225ZM10.5705 12L13.9755 1.2H16.623L20.028 12H18.168L15.078 2.31H15.483L12.4305 12H10.5705ZM12.468 9.66V7.9725H18.138V9.66H12.468ZM21.384 12V1.2H23.214L28.224 8.8125V1.2H30.054V12H28.224L23.214 4.3875V12H21.384ZM49.5857 12V1.2H51.3932V10.305H56.1632V12H49.5857ZM57.5838 12V1.2H59.3913V12H57.5838Z" fill="white"/>
<path d="M34.3106 12.225C33.4856 12.225 32.7981 12.01 32.2481 11.58C31.7031 11.15 31.3206 10.57 31.1006 9.84L32.8856 9.4125C32.9406 9.7175 33.1006 9.98 33.3656 10.2C33.6306 10.42 33.9231 10.53 34.2431 10.53C34.4531 10.53 34.6756 10.475 34.9106 10.365C35.1456 10.25 35.3206 10.0675 35.4356 9.8175C35.5056 9.6575 35.5456 9.4675 35.5556 9.2475C35.5706 9.0225 35.5781 8.7625 35.5781 8.4675V1.2H37.4081V8.4675C37.4081 8.8025 37.4056 9.0975 37.4006 9.3525C37.4006 9.6025 37.3756 9.84 37.3256 10.065C37.2806 10.285 37.1881 10.5125 37.0481 10.7475C36.7531 11.2575 36.3681 11.6325 35.8931 11.8725C35.4181 12.1075 34.8906 12.225 34.3106 12.225ZM38.6223 12L42.0273 1.2H44.6748L48.0798 12H46.2198L43.1298 2.31H43.5348L40.4823 12H38.6223ZM40.5198 9.66V7.9725H46.1898V9.66H40.5198Z" fill="#DA3066"/>
</svg>
