<svg width="14" height="14" viewBox="0 0 14 14" fill="none" xmlns="http://www.w3.org/2000/svg">
<g clip-path="url(#clip0_1613_162)">
<path d="M0.00477156 1.16627C0.00477157 1.47558 0.127646 1.77223 0.346364 1.99095C0.565082 2.20967 0.861727 2.33254 1.17104 2.33254H10.023L0.34299 12.0009C0.123377 12.2205 -1.58899e-08 12.5184 0 12.829C1.58898e-08 13.1395 0.123377 13.4374 0.34299 13.657C0.562603 13.8766 0.860462 14 1.17104 14C1.48162 14 1.77948 13.8766 1.99909 13.657L11.6675 3.97698V12.829C11.6675 13.1383 11.7903 13.4349 12.0091 13.6536C12.2278 13.8724 12.5244 13.9952 12.8337 13.9952C13.143 13.9952 13.4397 13.8724 13.6584 13.6536C13.8771 13.4349 14 13.1383 14 12.829V1.16627C13.9982 1.01386 13.9665 0.8633 13.9067 0.723089C13.7884 0.438112 13.5619 0.211649 13.2769 0.0933017C13.1367 0.0335407 12.9861 0.00184249 12.8337 0L1.17104 5.09792e-07C0.861727 5.23313e-07 0.565082 0.122874 0.346364 0.341593C0.127646 0.56031 0.00477154 0.856956 0.00477156 1.16627Z" fill="#DA3066"/>
</g>
<defs>
<clipPath id="clip0_1613_162">
<rect width="14" height="14" fill="white"/>
</clipPath>
</defs>
</svg>
