<svg width="20" height="20" viewBox="0 0 20 20" fill="none" xmlns="http://www.w3.org/2000/svg">
<g clip-path="url(#clip0_1613_160)">
<path d="M0.00681651 1.6661C0.00681653 2.10798 0.182352 2.53176 0.494806 2.84421C0.80726 3.15666 1.23104 3.3322 1.67292 3.3322H14.3186L0.489986 17.1442C0.176253 17.4579 -2.26998e-08 17.8834 0 18.3271C2.26998e-08 18.7708 0.176253 19.1963 0.489986 19.51C0.803718 19.8237 1.22923 20 1.67292 20C2.1166 20 2.54211 19.8237 2.85585 19.51L16.6678 5.6814V18.3271C16.6678 18.769 16.8433 19.1927 17.1558 19.5052C17.4682 19.8176 17.892 19.9932 18.3339 19.9932C18.7758 19.9932 19.1996 19.8176 19.512 19.5052C19.8245 19.1927 20 18.769 20 18.3271V1.6661C19.9974 1.44838 19.9521 1.23329 19.8667 1.03298C19.6976 0.625874 19.3741 0.302355 18.967 0.133288C18.7667 0.0479164 18.5516 0.00263213 18.3339 0L1.67291 7.28275e-07C1.23104 7.4759e-07 0.80726 0.175534 0.494806 0.487988C0.182352 0.800443 0.00681649 1.22422 0.00681651 1.6661Z" fill="#DA3066"/>
</g>
<defs>
<clipPath id="clip0_1613_160">
<rect width="20" height="20" fill="white"/>
</clipPath>
</defs>
</svg>
