<svg width="40" height="40" viewBox="0 0 40 40" fill="none" xmlns="http://www.w3.org/2000/svg">
<g clip-path="url(#clip0_350_5885)">
<path d="M20 40C31.0457 40 40 31.0457 40 20C40 8.9543 31.0457 0 20 0C8.9543 0 0 8.9543 0 20C0 31.0457 8.9543 40 20 40Z" fill="white"/>
<path fill-rule="evenodd" clip-rule="evenodd" d="M23.7165 7.55701L9.84169 8.57801C8.7229 8.67483 8.33301 9.40416 8.33301 10.2785V25.443C8.33301 26.1243 8.57604 26.7067 9.16048 27.485L12.4221 31.7136C12.9578 32.3945 13.4447 32.5402 14.4677 32.4914L30.5804 31.5191C31.9432 31.4224 32.333 30.7901 32.333 29.7209V12.6604C32.333 12.1077 32.1142 11.948 31.469 11.4774C31.4335 11.4515 31.3967 11.4246 31.3586 11.3967L26.9296 8.28615C25.8587 7.5088 25.4203 7.41099 23.7165 7.55701ZM14.8331 12.3807C13.5175 12.4694 13.2186 12.4896 12.4716 11.8832L10.5718 10.3765C10.3781 10.1816 10.4752 9.9386 10.9617 9.89039L24.3008 8.9182C25.4202 8.82078 26.0042 9.21026 26.4426 9.55032L28.7304 11.203C28.8278 11.2514 29.0708 11.5427 28.7786 11.5427L15.0029 12.3693L14.8331 12.3807ZM13.2986 29.5746V15.0909C13.2986 14.4591 13.4934 14.1673 14.0772 14.1183L29.8982 13.1951C30.4348 13.1465 30.6778 13.487 30.6778 14.1183V28.5048C30.6778 29.1371 30.5802 29.6725 29.7036 29.7207L14.5641 30.596C13.6879 30.6442 13.2986 30.353 13.2986 29.5746ZM28.2443 15.8679C28.3413 16.3058 28.2443 16.7433 27.8053 16.7925L27.0758 16.9377V27.6306C26.4425 27.9707 25.8584 28.1652 25.3718 28.1652C24.5926 28.1652 24.3975 27.9219 23.8138 27.1933L19.0424 19.7082V26.9502L20.5522 27.2907C20.5522 27.2907 20.5522 28.1652 19.3341 28.1652L15.9759 28.3598C15.8783 28.1652 15.9759 27.6795 16.3165 27.5822L17.1929 27.3395V17.7643L15.9761 17.6669C15.8785 17.229 16.1216 16.5977 16.8036 16.5487L20.4062 16.306L25.3718 23.8885V17.1808L24.1057 17.0356C24.0086 16.5002 24.3974 16.1116 24.8843 16.0634L28.2443 15.8679Z" fill="black"/>
</g>
<defs>
<clipPath id="clip0_350_5885">
<rect width="40" height="40" fill="white"/>
</clipPath>
</defs>
</svg>
