<svg width="40" height="40" viewBox="0 0 40 40" fill="none" xmlns="http://www.w3.org/2000/svg">
<g clip-path="url(#clip0_350_5892)">
<path d="M0 20C0 8.95433 8.95433 0 20 0C31.0457 0 40 8.95433 40 20C40 31.0457 31.0457 40 20 40C8.95433 40 0 31.0457 0 20Z" fill="#31C5F0"/>
<path d="M2 20C2 10.0589 10.0589 2 20 2C29.9411 2 38 10.0589 38 20C38 29.9411 29.9411 38 20 38C10.0589 38 2 29.9411 2 20Z" fill="url(#paint0_radial_350_5892)"/>
<path fill-rule="evenodd" clip-rule="evenodd" d="M10 11.5949C10 11.4903 10.2241 11.4119 10.3548 11.4119C11.3741 11.3596 12.8707 11.3335 14.4387 11.3335C18.8295 11.3335 20.5396 13.738 20.5396 16.822C20.5396 20.847 17.6206 22.5719 14.04 22.5719C13.7122 22.5719 13.501 22.5641 13.3089 22.557H13.3089C13.1487 22.5511 13.0018 22.5456 12.8116 22.5456V28.6314C12.8116 28.7622 12.7593 28.8145 12.6286 28.8145H10.183C10.0523 28.8145 10 28.7622 10 28.6314V11.5949ZM12.8117 20.0106C13.1776 20.0366 13.4651 20.0366 14.0923 20.0366C15.948 20.0366 17.6909 19.3832 17.6909 16.8741C17.6909 14.8615 16.4446 13.8424 14.3276 13.8424C13.7003 13.8424 13.0992 13.8683 12.8117 13.8946V20.0104V20.0106ZM24.7727 19.2787C24.7727 18.756 25.1909 18.1287 26.4454 18.1287C27.4649 18.1287 28.5029 18.3901 29.2084 18.8082C29.3652 18.8605 29.4436 18.7819 29.4436 18.6514V16.4817C29.4436 16.3771 29.4175 16.2466 29.2868 16.168C28.7641 15.933 27.8045 15.7239 26.4454 15.7239C23.6752 15.7239 22.0809 17.4229 22.0809 19.4615C22.0809 21.2908 23.0218 22.3885 25.2695 23.4603C26.8638 24.2965 27.2297 24.7932 27.2297 25.3682C27.2297 26.0739 26.707 26.5966 25.4524 26.5966C24.4068 26.5966 23.2542 26.3089 22.261 25.6557C22.1565 25.5774 22.078 25.6297 22.078 25.7865V28.1126C22.078 28.2433 22.1042 28.3217 22.2087 28.374C22.8883 28.7659 24.0672 29.0535 25.4524 29.0535C28.066 29.0535 30.0001 27.6944 30.0001 25.1591C30.0001 23.4604 29.216 22.3104 26.7331 21.1082C25.0602 20.2456 24.7727 19.8537 24.7727 19.2787Z" fill="#31C5F0"/>
</g>
<defs>
<radialGradient id="paint0_radial_350_5892" cx="0" cy="0" r="1" gradientUnits="userSpaceOnUse" gradientTransform="translate(16.3525 13.992) scale(23.4707)">
<stop stop-color="#0E0E17" stop-opacity="0.85"/>
<stop offset="0.767" stop-color="#0E0E17"/>
</radialGradient>
<clipPath id="clip0_350_5892">
<rect width="40" height="40" fill="white"/>
</clipPath>
</defs>
</svg>
