<svg width="40" height="40" viewBox="0 0 40 40" fill="none" xmlns="http://www.w3.org/2000/svg">
<path d="M0 20C0 8.95433 8.95433 0 20 0C31.0457 0 40 8.95433 40 20C40 31.0457 31.0457 40 20 40C8.95433 40 0 31.0457 0 20Z" fill="#333333"/>
<path d="M15.9998 32.0005C18.2089 32.0005 19.9998 30.2096 19.9998 28.0005V24.0005H15.9998C13.7906 24.0005 11.9998 25.7913 11.9998 28.0005C11.9998 30.2096 13.7906 32.0005 15.9998 32.0005Z" fill="#0ACF83"/>
<path d="M12 20C12 17.7909 13.7909 16 16 16H20V24H16C13.7909 24 12 22.2091 12 20Z" fill="#A259FF"/>
<path d="M12 12C12 9.79086 13.7909 8 16 8H20V16H16C13.7909 16 12 14.2091 12 12Z" fill="#F24E1E"/>
<path d="M20 8H24C26.2091 8 28 9.79086 28 12C28 14.2091 26.2091 16 24 16H20V8Z" fill="#FF7262"/>
<path d="M28 20C28 22.2091 26.2091 24 24 24C21.7909 24 20 22.2091 20 20C20 17.7909 21.7909 16 24 16C26.2091 16 28 17.7909 28 20Z" fill="#1ABCFE"/>
</svg>
