<svg width="40" height="40" viewBox="0 0 40 40" fill="none" xmlns="http://www.w3.org/2000/svg">
<g clip-path="url(#clip0_350_5900)">
<path d="M0 20C0 8.95433 8.95433 0 20 0C31.0457 0 40 8.95433 40 20C40 31.0457 31.0457 40 20 40C8.95433 40 0 31.0457 0 20Z" fill="#F37021"/>
<path d="M2 20C2 10.0589 10.0589 2 20 2C29.9411 2 38 10.0589 38 20C38 29.9411 29.9411 38 20 38C10.0589 38 2 29.9411 2 20Z" fill="url(#paint0_radial_350_5900)"/>
<path fill-rule="evenodd" clip-rule="evenodd" d="M24.7898 12.5666C24.7898 11.5569 25.4888 10.9614 26.3949 10.9614C27.3528 10.9614 28 11.6087 28 12.5666C28 13.6021 27.3269 14.1717 26.369 14.1717C25.437 14.1717 24.7898 13.6021 24.7898 12.5666ZM12.1123 28.5412L13.355 23.8367H13.3551H18.3776L19.6721 28.5669C19.6978 28.6705 19.7756 28.7007 19.9049 28.7007H22.4938C22.6233 28.7007 22.6492 28.6229 22.6233 28.4936L17.6268 11.5574C17.6008 11.428 17.549 11.4021 17.4454 11.4021H14.1577C14.0799 11.4021 14.0281 11.4539 14.0281 11.5574C14.0022 12.3341 13.9504 12.5792 13.8727 12.864L9.41982 28.4677C9.39409 28.649 9.41982 28.7007 9.57484 28.7007H11.8794C12.0346 28.7007 12.0866 28.6705 12.1123 28.5412ZM17.235 19.3831C17.4295 20.124 17.6044 20.7901 17.7304 21.2867H14.0282L14.0704 21.1284L14.0704 21.1284L14.0704 21.1283C14.7108 18.7199 15.511 15.7107 15.8405 13.9123H15.8664C16.1434 15.2241 16.7503 17.5361 17.235 19.3831ZM25.1468 15.9521C25.0173 15.9521 24.9655 16.0038 24.9655 16.1333V28.4934C24.9655 28.6227 25.0173 28.7005 25.1726 28.7005H27.6086C27.7639 28.7005 27.7898 28.6487 27.7898 28.5193V16.1333C27.7898 16.0038 27.738 15.9521 27.6086 15.9521H25.1468Z" fill="#FF7F18"/>
</g>
<defs>
<radialGradient id="paint0_radial_350_5900" cx="0" cy="0" r="1" gradientUnits="userSpaceOnUse" gradientTransform="translate(16.3525 13.992) scale(23.4707)">
<stop stop-color="#1C0A00" stop-opacity="0.85"/>
<stop offset="0.767" stop-color="#1C0A00"/>
</radialGradient>
<clipPath id="clip0_350_5900">
<rect width="40" height="40" fill="white"/>
</clipPath>
</defs>
</svg>
